<?xml version="1.0" encoding="UTF-8" standalone="no"?>
<!DOCTYPE svg PUBLIC "-//W3C//DTD SVG 1.1//EN"
 "http://www.w3.org/Graphics/SVG/1.1/DTD/svg11.dtd">
<!-- Generated by graphviz version 2.38.0 (20140413.2041)
 -->
<!-- Title: G Pages: 1 -->
<svg width="2295pt" height="916pt"
 viewBox="0.00 0.00 2295.21 915.98" xmlns="http://www.w3.org/2000/svg" xmlns:xlink="http://www.w3.org/1999/xlink">
<g id="graph0" class="graph" transform="scale(1 1) rotate(0) translate(7.992 907.992)">
<title>G</title>
<polygon fill="#000000" stroke="none" points="-7.992,7.992 -7.992,-907.992 2287.22,-907.992 2287.22,7.992 -7.992,7.992"/>
<!-- components/index -->
<g id="node1" class="node"><title>components/index</title>
<ellipse fill="none" stroke="#c6c5fe" cx="2133.23" cy="-738" rx="87.4893" ry="18"/>
<text text-anchor="middle" x="2133.23" y="-734.849" font-family="Arial" font-size="14.00" fill="#c6c5fe">components/index</text>
</g>
<!-- components/keep&#45;alive -->
<g id="node2" class="node"><title>components/keep&#45;alive</title>
<ellipse fill="none" stroke="#cfffac" cx="2143.23" cy="-666" rx="107.835" ry="18"/>
<text text-anchor="middle" x="2143.23" y="-662.849" font-family="Arial" font-size="14.00" fill="#cfffac">components/keep&#45;alive</text>
</g>
<!-- components/index&#45;&gt;components/keep&#45;alive -->
<g id="edge1" class="edge"><title>components/index&#45;&gt;components/keep&#45;alive</title>
<path fill="none" stroke="#757575" d="M2135.7,-719.697C2136.8,-711.983 2138.13,-702.712 2139.35,-694.112"/>
<polygon fill="#757575" stroke="#757575" points="2142.83,-694.499 2140.78,-684.104 2135.91,-693.509 2142.83,-694.499"/>
</g>
<!-- config -->
<g id="node3" class="node"><title>config</title>
<ellipse fill="none" stroke="#cfffac" cx="1514.23" cy="-18" rx="35.825" ry="18"/>
<text text-anchor="middle" x="1514.23" y="-14.8493" font-family="Arial" font-size="14.00" fill="#cfffac">config</text>
</g>
<!-- global&#45;api/assets -->
<g id="node4" class="node"><title>global&#45;api/assets</title>
<ellipse fill="none" stroke="#c6c5fe" cx="1803.23" cy="-738" rx="81.4588" ry="18"/>
<text text-anchor="middle" x="1803.23" y="-734.849" font-family="Arial" font-size="14.00" fill="#c6c5fe">global&#45;api/assets</text>
</g>
<!-- global&#45;api/assets&#45;&gt;config -->
<g id="edge2" class="edge"><title>global&#45;api/assets&#45;&gt;config</title>
<path fill="none" stroke="#757575" d="M1844.69,-722.414C1893.86,-702.151 1969.23,-660.421 1969.23,-595 1969.23,-595 1969.23,-595 1969.23,-161 1969.23,-95.6652 1912.33,-97.6183 1852.23,-72 1754.07,-30.1615 1627.24,-20.943 1560.31,-19.1661"/>
<polygon fill="#757575" stroke="#757575" points="1560.17,-15.6623 1550.09,-18.9409 1560.01,-22.6606 1560.17,-15.6623"/>
</g>
<!-- util/index -->
<g id="node5" class="node"><title>util/index</title>
<ellipse fill="none" stroke="#ff6c60" cx="1273.23" cy="-666" rx="47.915" ry="18"/>
<text text-anchor="middle" x="1273.23" y="-662.849" font-family="Arial" font-size="14.00" fill="#ff6c60">util/index</text>
</g>
<!-- global&#45;api/assets&#45;&gt;util/index -->
<g id="edge3" class="edge"><title>global&#45;api/assets&#45;&gt;util/index</title>
<path fill="none" stroke="#757575" d="M1744.75,-725.367C1734.27,-723.451 1723.44,-721.578 1713.23,-720 1575.63,-698.742 1412.72,-681.056 1329.02,-672.513"/>
<polygon fill="#757575" stroke="#757575" points="1329.27,-669.021 1318.97,-671.492 1328.57,-675.985 1329.27,-669.021"/>
</g>
<!-- observer/index -->
<g id="node10" class="node"><title>observer/index</title>
<ellipse fill="none" stroke="#ff6c60" cx="1399.23" cy="-306" rx="72.6443" ry="18"/>
<text text-anchor="middle" x="1399.23" y="-302.849" font-family="Arial" font-size="14.00" fill="#ff6c60">observer/index</text>
</g>
<!-- util/index&#45;&gt;observer/index -->
<g id="edge63" class="edge"><title>util/index&#45;&gt;observer/index</title>
<path fill="none" stroke="#757575" d="M1276.2,-647.733C1291.9,-589.957 1357.44,-403.128 1386.16,-333.489"/>
<polygon fill="#757575" stroke="#757575" points="1389.46,-334.668 1390.12,-324.094 1383.01,-331.95 1389.46,-334.668"/>
</g>
<!-- util/debug -->
<g id="node26" class="node"><title>util/debug</title>
<ellipse fill="none" stroke="#c6c5fe" cx="1510.23" cy="-522" rx="51.7675" ry="18"/>
<text text-anchor="middle" x="1510.23" y="-518.849" font-family="Arial" font-size="14.00" fill="#c6c5fe">util/debug</text>
</g>
<!-- util/index&#45;&gt;util/debug -->
<g id="edge64" class="edge"><title>util/index&#45;&gt;util/debug</title>
<path fill="none" stroke="#757575" d="M1321.09,-664.101C1450.83,-661.173 1801.82,-649.798 1836.23,-612 1847,-600.168 1846.59,-588.188 1836.23,-576 1802.98,-536.914 1656.88,-526.575 1571.98,-523.892"/>
<polygon fill="#757575" stroke="#757575" points="1572.03,-520.392 1561.94,-523.601 1571.83,-527.389 1572.03,-520.392"/>
</g>
<!-- util/env -->
<g id="node27" class="node"><title>util/env</title>
<ellipse fill="none" stroke="#cfffac" cx="1682.23" cy="-594" rx="40.7478" ry="18"/>
<text text-anchor="middle" x="1682.23" y="-590.849" font-family="Arial" font-size="14.00" fill="#cfffac">util/env</text>
</g>
<!-- util/index&#45;&gt;util/env -->
<g id="edge65" class="edge"><title>util/index&#45;&gt;util/env</title>
<path fill="none" stroke="#757575" d="M1318.9,-660.397C1386.74,-653.057 1517.87,-636.938 1627.23,-612 1631.86,-610.945 1636.66,-609.696 1641.42,-608.361"/>
<polygon fill="#757575" stroke="#757575" points="1642.43,-611.712 1651.04,-605.537 1640.46,-604.995 1642.43,-611.712"/>
</g>
<!-- util/lang -->
<g id="node28" class="node"><title>util/lang</title>
<ellipse fill="none" stroke="#cfffac" cx="1784.23" cy="-594" rx="43.4938" ry="18"/>
<text text-anchor="middle" x="1784.23" y="-590.849" font-family="Arial" font-size="14.00" fill="#cfffac">util/lang</text>
</g>
<!-- util/index&#45;&gt;util/lang -->
<g id="edge66" class="edge"><title>util/index&#45;&gt;util/lang</title>
<path fill="none" stroke="#757575" d="M1320.66,-662.67C1404.52,-657.855 1584.12,-644.414 1732.23,-612 1735.67,-611.246 1739.21,-610.353 1742.75,-609.378"/>
<polygon fill="#757575" stroke="#757575" points="1744.01,-612.653 1752.61,-606.456 1742.03,-605.941 1744.01,-612.653"/>
</g>
<!-- util/options -->
<g id="node29" class="node"><title>util/options</title>
<ellipse fill="none" stroke="#ff6c60" cx="1529.23" cy="-594" rx="55.6321" ry="18"/>
<text text-anchor="middle" x="1529.23" y="-590.849" font-family="Arial" font-size="14.00" fill="#ff6c60">util/options</text>
</g>
<!-- util/index&#45;&gt;util/options -->
<g id="edge67" class="edge"><title>util/index&#45;&gt;util/options</title>
<path fill="none" stroke="#757575" d="M1310.73,-654.746C1354.9,-642.667 1428.52,-622.537 1477.95,-609.021"/>
<polygon fill="#757575" stroke="#757575" points="1479.08,-612.34 1487.81,-606.326 1477.24,-605.588 1479.08,-612.34"/>
</g>
<!-- util/props -->
<g id="node30" class="node"><title>util/props</title>
<ellipse fill="none" stroke="#c6c5fe" cx="1406.23" cy="-594" rx="49.0038" ry="18"/>
<text text-anchor="middle" x="1406.23" y="-590.849" font-family="Arial" font-size="14.00" fill="#c6c5fe">util/props</text>
</g>
<!-- util/index&#45;&gt;util/props -->
<g id="edge68" class="edge"><title>util/index&#45;&gt;util/props</title>
<path fill="none" stroke="#757575" d="M1299.82,-651.003C1319.99,-640.39 1347.92,-625.689 1370.11,-614.012"/>
<polygon fill="#757575" stroke="#757575" points="1372,-616.968 1379.22,-609.213 1368.74,-610.773 1372,-616.968"/>
</g>
<!-- global&#45;api/extend -->
<g id="node6" class="node"><title>global&#45;api/extend</title>
<ellipse fill="none" stroke="#c6c5fe" cx="1621.23" cy="-738" rx="82.5753" ry="18"/>
<text text-anchor="middle" x="1621.23" y="-734.849" font-family="Arial" font-size="14.00" fill="#c6c5fe">global&#45;api/extend</text>
</g>
<!-- global&#45;api/extend&#45;&gt;config -->
<g id="edge4" class="edge"><title>global&#45;api/extend&#45;&gt;config</title>
<path fill="none" stroke="#757575" d="M1678.45,-724.942C1768.02,-702.335 1931.23,-644.476 1931.23,-523 1931.23,-523 1931.23,-523 1931.23,-161 1931.23,-83.0082 1666.54,-39.1559 1558.92,-24.5497"/>
<polygon fill="#757575" stroke="#757575" points="1559.08,-21.0404 1548.71,-23.1877 1558.16,-27.979 1559.08,-21.0404"/>
</g>
<!-- global&#45;api/extend&#45;&gt;util/index -->
<g id="edge5" class="edge"><title>global&#45;api/extend&#45;&gt;util/index</title>
<path fill="none" stroke="#757575" d="M1562.59,-725.205C1495.89,-711.788 1388.03,-690.092 1324.54,-677.321"/>
<polygon fill="#757575" stroke="#757575" points="1324.86,-673.815 1314.36,-675.274 1323.48,-680.678 1324.86,-673.815"/>
</g>
<!-- global&#45;api/index -->
<g id="node7" class="node"><title>global&#45;api/index</title>
<ellipse fill="none" stroke="#c6c5fe" cx="1712.23" cy="-810" rx="76.5461" ry="18"/>
<text text-anchor="middle" x="1712.23" y="-806.849" font-family="Arial" font-size="14.00" fill="#c6c5fe">global&#45;api/index</text>
</g>
<!-- global&#45;api/index&#45;&gt;components/index -->
<g id="edge6" class="edge"><title>global&#45;api/index&#45;&gt;components/index</title>
<path fill="none" stroke="#757575" d="M1773,-798.896C1848.11,-786.406 1975.98,-765.145 2057.44,-751.602"/>
<polygon fill="#757575" stroke="#757575" points="2058.34,-755 2067.63,-749.907 2057.19,-748.095 2058.34,-755"/>
</g>
<!-- global&#45;api/index&#45;&gt;config -->
<g id="edge7" class="edge"><title>global&#45;api/index&#45;&gt;config</title>
<path fill="none" stroke="#757575" d="M1785.91,-804.827C1873.28,-795.436 2007.23,-765.049 2007.23,-667 2007.23,-667 2007.23,-667 2007.23,-161 2007.23,-103.144 1964.51,-96.779 1912.23,-72 1850.59,-42.7862 1650.59,-27.2643 1559.8,-21.5734"/>
<polygon fill="#757575" stroke="#757575" points="1560,-18.0792 1549.81,-20.959 1559.57,-25.066 1560,-18.0792"/>
</g>
<!-- global&#45;api/index&#45;&gt;global&#45;api/assets -->
<g id="edge8" class="edge"><title>global&#45;api/index&#45;&gt;global&#45;api/assets</title>
<path fill="none" stroke="#757575" d="M1733.79,-792.411C1745.69,-783.257 1760.65,-771.755 1773.62,-761.772"/>
<polygon fill="#757575" stroke="#757575" points="1776.02,-764.341 1781.82,-755.47 1771.76,-758.793 1776.02,-764.341"/>
</g>
<!-- global&#45;api/index&#45;&gt;util/index -->
<g id="edge13" class="edge"><title>global&#45;api/index&#45;&gt;util/index</title>
<path fill="none" stroke="#757575" d="M1640,-803.642C1551.34,-796.125 1406.88,-780.553 1359.23,-756 1351.34,-751.937 1317.85,-716.085 1295.06,-691.145"/>
<polygon fill="#757575" stroke="#757575" points="1297.41,-688.522 1288.09,-683.485 1292.23,-693.235 1297.41,-688.522"/>
</g>
<!-- global&#45;api/index&#45;&gt;global&#45;api/extend -->
<g id="edge9" class="edge"><title>global&#45;api/index&#45;&gt;global&#45;api/extend</title>
<path fill="none" stroke="#757575" d="M1690.66,-792.411C1678.76,-783.257 1663.81,-771.755 1650.83,-761.772"/>
<polygon fill="#757575" stroke="#757575" points="1652.7,-758.793 1642.64,-755.47 1648.43,-764.341 1652.7,-758.793"/>
</g>
<!-- global&#45;api/mixin -->
<g id="node8" class="node"><title>global&#45;api/mixin</title>
<ellipse fill="none" stroke="#c6c5fe" cx="1444.23" cy="-738" rx="76.4696" ry="18"/>
<text text-anchor="middle" x="1444.23" y="-734.849" font-family="Arial" font-size="14.00" fill="#c6c5fe">global&#45;api/mixin</text>
</g>
<!-- global&#45;api/index&#45;&gt;global&#45;api/mixin -->
<g id="edge10" class="edge"><title>global&#45;api/index&#45;&gt;global&#45;api/mixin</title>
<path fill="none" stroke="#757575" d="M1663.07,-796.161C1618.07,-784.406 1551.38,-766.986 1503.45,-754.469"/>
<polygon fill="#757575" stroke="#757575" points="1504.08,-751.017 1493.52,-751.876 1502.32,-757.79 1504.08,-751.017"/>
</g>
<!-- global&#45;api/use -->
<g id="node9" class="node"><title>global&#45;api/use</title>
<ellipse fill="none" stroke="#c6c5fe" cx="1243.23" cy="-738" rx="69.3779" ry="18"/>
<text text-anchor="middle" x="1243.23" y="-734.849" font-family="Arial" font-size="14.00" fill="#c6c5fe">global&#45;api/use</text>
</g>
<!-- global&#45;api/index&#45;&gt;global&#45;api/use -->
<g id="edge11" class="edge"><title>global&#45;api/index&#45;&gt;global&#45;api/use</title>
<path fill="none" stroke="#757575" d="M1645.08,-801.135C1567.91,-791.784 1437.58,-775.027 1326.23,-756 1319.41,-754.835 1312.29,-753.524 1305.22,-752.16"/>
<polygon fill="#757575" stroke="#757575" points="1305.42,-748.632 1294.93,-750.136 1304.07,-755.5 1305.42,-748.632"/>
</g>
<!-- global&#45;api/index&#45;&gt;observer/index -->
<g id="edge12" class="edge"><title>global&#45;api/index&#45;&gt;observer/index</title>
<path fill="none" stroke="#757575" d="M1773.46,-799.105C1820.08,-790.175 1878.65,-775.457 1893.23,-756 1924.21,-714.643 1926.44,-670.863 1854.23,-576 1748.47,-437.076 1548.58,-356.064 1452.9,-323.62"/>
<polygon fill="#757575" stroke="#757575" points="1453.74,-320.209 1443.14,-320.358 1451.52,-326.848 1453.74,-320.209"/>
</g>
<!-- global&#45;api/mixin&#45;&gt;util/index -->
<g id="edge14" class="edge"><title>global&#45;api/mixin&#45;&gt;util/index</title>
<path fill="none" stroke="#757575" d="M1407.96,-722.155C1380.39,-710.869 1342.46,-695.342 1313.87,-683.638"/>
<polygon fill="#757575" stroke="#757575" points="1315.14,-680.376 1304.56,-679.826 1312.49,-686.854 1315.14,-680.376"/>
</g>
<!-- global&#45;api/use&#45;&gt;util/index -->
<g id="edge15" class="edge"><title>global&#45;api/use&#45;&gt;util/index</title>
<path fill="none" stroke="#757575" d="M1250.49,-720.055C1253.9,-712.091 1258.05,-702.411 1261.87,-693.51"/>
<polygon fill="#757575" stroke="#757575" points="1265.1,-694.845 1265.82,-684.275 1258.67,-692.088 1265.1,-694.845"/>
</g>
<!-- observer/index&#45;&gt;config -->
<g id="edge51" class="edge"><title>observer/index&#45;&gt;config</title>
<path fill="none" stroke="#757575" d="M1406.08,-287.966C1425.37,-239.979 1480.29,-103.414 1503.58,-45.4915"/>
<polygon fill="#757575" stroke="#757575" points="1506.93,-46.5287 1507.41,-35.9448 1500.44,-43.9171 1506.93,-46.5287"/>
</g>
<!-- observer/index&#45;&gt;util/index -->
<g id="edge54" class="edge"><title>observer/index&#45;&gt;util/index</title>
<path fill="none" stroke="#757575" d="M1396.29,-324.167C1380.61,-381.924 1314.81,-569.458 1286.16,-638.86"/>
<polygon fill="#757575" stroke="#757575" points="1282.87,-637.639 1282.21,-648.213 1289.32,-640.361 1282.87,-637.639"/>
</g>
<!-- observer/dep -->
<g id="node23" class="node"><title>observer/dep</title>
<ellipse fill="none" stroke="#ff6c60" cx="1166.23" cy="-234" rx="65.5357" ry="18"/>
<text text-anchor="middle" x="1166.23" y="-230.849" font-family="Arial" font-size="14.00" fill="#ff6c60">observer/dep</text>
</g>
<!-- observer/index&#45;&gt;observer/dep -->
<g id="edge53" class="edge"><title>observer/index&#45;&gt;observer/dep</title>
<path fill="none" stroke="#757575" d="M1354.85,-291.669C1316.06,-280.015 1259.69,-263.078 1218.68,-250.757"/>
<polygon fill="#757575" stroke="#757575" points="1219.45,-247.334 1208.86,-247.809 1217.43,-254.038 1219.45,-247.334"/>
</g>
<!-- observer/array -->
<g id="node24" class="node"><title>observer/array</title>
<ellipse fill="none" stroke="#ff6c60" cx="1690.23" cy="-234" rx="71.5279" ry="18"/>
<text text-anchor="middle" x="1690.23" y="-230.849" font-family="Arial" font-size="14.00" fill="#ff6c60">observer/array</text>
</g>
<!-- observer/index&#45;&gt;observer/array -->
<g id="edge52" class="edge"><title>observer/index&#45;&gt;observer/array</title>
<path fill="none" stroke="#757575" d="M1449.58,-292.887C1499.86,-280.792 1577.13,-262.205 1630.48,-249.371"/>
<polygon fill="#757575" stroke="#757575" points="1631.58,-252.707 1640.49,-246.965 1629.95,-245.901 1631.58,-252.707"/>
</g>
<!-- index -->
<g id="node11" class="node"><title>index</title>
<ellipse fill="none" stroke="#c6c5fe" cx="1712.23" cy="-882" rx="33.0903" ry="18"/>
<text text-anchor="middle" x="1712.23" y="-878.849" font-family="Arial" font-size="14.00" fill="#c6c5fe">index</text>
</g>
<!-- index&#45;&gt;config -->
<g id="edge16" class="edge"><title>index&#45;&gt;config</title>
<path fill="none" stroke="#757575" d="M1745.58,-879.871C1867.12,-874.868 2279.23,-849.737 2279.23,-739 2279.23,-739 2279.23,-739 2279.23,-161 2279.23,-87.3928 1724.66,-36.1885 1559.87,-22.5978"/>
<polygon fill="#757575" stroke="#757575" points="1559.84,-19.0839 1549.59,-21.7572 1559.27,-26.0606 1559.84,-19.0839"/>
</g>
<!-- index&#45;&gt;global&#45;api/index -->
<g id="edge17" class="edge"><title>index&#45;&gt;global&#45;api/index</title>
<path fill="none" stroke="#757575" d="M1712.23,-863.697C1712.23,-855.983 1712.23,-846.712 1712.23,-838.112"/>
<polygon fill="#757575" stroke="#757575" points="1715.73,-838.104 1712.23,-828.104 1708.73,-838.104 1715.73,-838.104"/>
</g>
<!-- instance/index -->
<g id="node12" class="node"><title>instance/index</title>
<ellipse fill="none" stroke="#ff6c60" cx="815.228" cy="-522" rx="71.0157" ry="18"/>
<text text-anchor="middle" x="815.228" y="-518.849" font-family="Arial" font-size="14.00" fill="#ff6c60">instance/index</text>
</g>
<!-- index&#45;&gt;instance/index -->
<g id="edge18" class="edge"><title>index&#45;&gt;instance/index</title>
<path fill="none" stroke="#757575" d="M1679.19,-879.297C1517.94,-870.554 821.228,-827.648 821.228,-739 821.228,-739 821.228,-739 821.228,-665 821.228,-624.96 818.817,-578.627 817.052,-550.065"/>
<polygon fill="#757575" stroke="#757575" points="820.542,-549.797 816.413,-540.039 813.556,-550.242 820.542,-549.797"/>
</g>
<!-- instance/index&#45;&gt;util/index -->
<g id="edge26" class="edge"><title>instance/index&#45;&gt;util/index</title>
<path fill="none" stroke="#757575" d="M826.12,-540.032C840.408,-560.799 867.543,-595.201 900.228,-612 954.142,-639.71 1125.53,-655.079 1216.01,-661.45"/>
<polygon fill="#757575" stroke="#757575" points="1215.88,-664.95 1226.1,-662.147 1216.36,-657.966 1215.88,-664.95"/>
</g>
<!-- instance/events -->
<g id="node13" class="node"><title>instance/events</title>
<ellipse fill="none" stroke="#ff6c60" cx="466.228" cy="-378" rx="76.488" ry="18"/>
<text text-anchor="middle" x="466.228" y="-374.849" font-family="Arial" font-size="14.00" fill="#ff6c60">instance/events</text>
</g>
<!-- instance/index&#45;&gt;instance/events -->
<g id="edge21" class="edge"><title>instance/index&#45;&gt;instance/events</title>
<path fill="none" stroke="#757575" d="M754.156,-512.629C708.637,-504.915 645.712,-491.083 594.228,-468 556.285,-450.988 517.783,-422.341 493.059,-402.151"/>
<polygon fill="#757575" stroke="#757575" points="495.156,-399.344 485.223,-395.657 490.69,-404.733 495.156,-399.344"/>
</g>
<!-- instance/init -->
<g id="node15" class="node"><title>instance/init</title>
<ellipse fill="none" stroke="#ff6c60" cx="766.228" cy="-450" rx="60.5541" ry="18"/>
<text text-anchor="middle" x="766.228" y="-446.849" font-family="Arial" font-size="14.00" fill="#ff6c60">instance/init</text>
</g>
<!-- instance/index&#45;&gt;instance/init -->
<g id="edge22" class="edge"><title>instance/index&#45;&gt;instance/init</title>
<path fill="none" stroke="#757575" d="M803.366,-504.055C797.528,-495.715 790.371,-485.491 783.904,-476.252"/>
<polygon fill="#757575" stroke="#757575" points="786.582,-473.974 777.98,-467.789 780.848,-477.988 786.582,-473.974"/>
</g>
<!-- instance/lifecycle -->
<g id="node16" class="node"><title>instance/lifecycle</title>
<ellipse fill="none" stroke="#ff6c60" cx="918.228" cy="-378" rx="81.9894" ry="18"/>
<text text-anchor="middle" x="918.228" y="-374.849" font-family="Arial" font-size="14.00" fill="#ff6c60">instance/lifecycle</text>
</g>
<!-- instance/index&#45;&gt;instance/lifecycle -->
<g id="edge23" class="edge"><title>instance/index&#45;&gt;instance/lifecycle</title>
<path fill="none" stroke="#757575" d="M827.448,-504.153C845.413,-479.386 879.078,-432.974 899.979,-404.159"/>
<polygon fill="#757575" stroke="#757575" points="902.985,-405.975 906.024,-395.825 897.319,-401.865 902.985,-405.975"/>
</g>
<!-- instance/render -->
<g id="node17" class="node"><title>instance/render</title>
<ellipse fill="none" stroke="#ff6c60" cx="674.228" cy="-306" rx="75.9389" ry="18"/>
<text text-anchor="middle" x="674.228" y="-302.849" font-family="Arial" font-size="14.00" fill="#ff6c60">instance/render</text>
</g>
<!-- instance/index&#45;&gt;instance/render -->
<g id="edge24" class="edge"><title>instance/index&#45;&gt;instance/render</title>
<path fill="none" stroke="#757575" d="M769.595,-508.189C745.682,-499.74 717.109,-486.72 696.228,-468 657.88,-433.622 644.986,-410.666 654.228,-360 655.834,-351.196 658.825,-341.954 662.014,-333.698"/>
<polygon fill="#757575" stroke="#757575" points="665.349,-334.791 665.922,-324.212 658.877,-332.125 665.349,-334.791"/>
</g>
<!-- instance/state -->
<g id="node18" class="node"><title>instance/state</title>
<ellipse fill="none" stroke="#ff6c60" cx="1125.23" cy="-378" rx="68.8198" ry="18"/>
<text text-anchor="middle" x="1125.23" y="-374.849" font-family="Arial" font-size="14.00" fill="#ff6c60">instance/state</text>
</g>
<!-- instance/index&#45;&gt;instance/state -->
<g id="edge25" class="edge"><title>instance/index&#45;&gt;instance/state</title>
<path fill="none" stroke="#757575" d="M848.11,-505.938C904.877,-479.935 1021.16,-426.672 1083.52,-398.105"/>
<polygon fill="#757575" stroke="#757575" points="1085.05,-401.254 1092.68,-393.907 1082.13,-394.89 1085.05,-401.254"/>
</g>
<!-- instance/events&#45;&gt;util/index -->
<g id="edge19" class="edge"><title>instance/events&#45;&gt;util/index</title>
<path fill="none" stroke="#757575" d="M475.339,-396.136C486.497,-415.739 507.054,-447.735 532.228,-468 653.714,-565.797 702.089,-569.794 852.228,-612 978.726,-647.56 1133.33,-659.297 1215.46,-663.145"/>
<polygon fill="#757575" stroke="#757575" points="1215.45,-666.648 1225.6,-663.596 1215.76,-659.655 1215.45,-666.648"/>
</g>
<!-- vdom/helpers/index -->
<g id="node14" class="node"><title>vdom/helpers/index</title>
<ellipse fill="none" stroke="#c6c5fe" cx="405.228" cy="-90" rx="92.451" ry="18"/>
<text text-anchor="middle" x="405.228" y="-86.8493" font-family="Arial" font-size="14.00" fill="#c6c5fe">vdom/helpers/index</text>
</g>
<!-- instance/events&#45;&gt;vdom/helpers/index -->
<g id="edge20" class="edge"><title>instance/events&#45;&gt;vdom/helpers/index</title>
<path fill="none" stroke="#757575" d="M454.373,-360.158C438.757,-337.001 411.805,-293.47 399.228,-252 385.267,-205.97 386.457,-191.753 392.228,-144 393.267,-135.403 395.221,-126.188 397.305,-117.893"/>
<polygon fill="#757575" stroke="#757575" points="400.75,-118.558 399.954,-107.993 393.988,-116.748 400.75,-118.558"/>
</g>
<!-- vdom/helpers/merge&#45;hook -->
<g id="node32" class="node"><title>vdom/helpers/merge&#45;hook</title>
<ellipse fill="none" stroke="#cfffac" cx="120.228" cy="-18" rx="120.456" ry="18"/>
<text text-anchor="middle" x="120.228" y="-14.8493" font-family="Arial" font-size="14.00" fill="#cfffac">vdom/helpers/merge&#45;hook</text>
</g>
<!-- vdom/helpers/index&#45;&gt;vdom/helpers/merge&#45;hook -->
<g id="edge87" class="edge"><title>vdom/helpers/index&#45;&gt;vdom/helpers/merge&#45;hook</title>
<path fill="none" stroke="#757575" d="M350.277,-75.5033C304.576,-64.2785 239.26,-48.236 189.894,-36.111"/>
<polygon fill="#757575" stroke="#757575" points="190.476,-32.65 179.93,-33.6636 188.806,-39.4479 190.476,-32.65"/>
</g>
<!-- vdom/helpers/normalize&#45;children -->
<g id="node33" class="node"><title>vdom/helpers/normalize&#45;children</title>
<ellipse fill="none" stroke="#cfffac" cx="405.228" cy="-18" rx="146.863" ry="18"/>
<text text-anchor="middle" x="405.228" y="-14.8493" font-family="Arial" font-size="14.00" fill="#cfffac">vdom/helpers/normalize&#45;children</text>
</g>
<!-- vdom/helpers/index&#45;&gt;vdom/helpers/normalize&#45;children -->
<g id="edge88" class="edge"><title>vdom/helpers/index&#45;&gt;vdom/helpers/normalize&#45;children</title>
<path fill="none" stroke="#757575" d="M405.228,-71.6966C405.228,-63.9827 405.228,-54.7125 405.228,-46.1124"/>
<polygon fill="#757575" stroke="#757575" points="408.728,-46.1043 405.228,-36.1043 401.728,-46.1044 408.728,-46.1043"/>
</g>
<!-- vdom/helpers/update&#45;listeners -->
<g id="node34" class="node"><title>vdom/helpers/update&#45;listeners</title>
<ellipse fill="none" stroke="#cfffac" cx="707.228" cy="-18" rx="136.987" ry="18"/>
<text text-anchor="middle" x="707.228" y="-14.8493" font-family="Arial" font-size="14.00" fill="#cfffac">vdom/helpers/update&#45;listeners</text>
</g>
<!-- vdom/helpers/index&#45;&gt;vdom/helpers/update&#45;listeners -->
<g id="edge89" class="edge"><title>vdom/helpers/index&#45;&gt;vdom/helpers/update&#45;listeners</title>
<path fill="none" stroke="#757575" d="M462.387,-75.7512C510.662,-64.5617 580.137,-48.4581 632.758,-36.2613"/>
<polygon fill="#757575" stroke="#757575" points="633.76,-39.6218 642.712,-33.9541 632.18,-32.8026 633.76,-39.6218"/>
</g>
<!-- instance/init&#45;&gt;util/index -->
<g id="edge32" class="edge"><title>instance/init&#45;&gt;util/index</title>
<path fill="none" stroke="#757575" d="M814.382,-460.975C841.183,-468.716 873.433,-481.966 895.228,-504 931.56,-540.731 897.874,-579.739 938.228,-612 980.006,-645.399 1131.2,-658.086 1215.47,-662.637"/>
<polygon fill="#757575" stroke="#757575" points="1215.49,-666.143 1225.65,-663.165 1215.85,-659.152 1215.49,-666.143"/>
</g>
<!-- instance/init&#45;&gt;instance/events -->
<g id="edge27" class="edge"><title>instance/init&#45;&gt;instance/events</title>
<path fill="none" stroke="#757575" d="M720.01,-438.216C668.611,-426.223 585.323,-406.789 528.276,-393.478"/>
<polygon fill="#757575" stroke="#757575" points="528.831,-390.013 518.297,-391.149 527.24,-396.83 528.831,-390.013"/>
</g>
<!-- instance/init&#45;&gt;instance/lifecycle -->
<g id="edge28" class="edge"><title>instance/init&#45;&gt;instance/lifecycle</title>
<path fill="none" stroke="#757575" d="M797.722,-434.496C820.237,-424.127 850.798,-410.053 875.51,-398.673"/>
<polygon fill="#757575" stroke="#757575" points="877.046,-401.819 884.665,-394.457 874.118,-395.461 877.046,-401.819"/>
</g>
<!-- instance/init&#45;&gt;instance/render -->
<g id="edge30" class="edge"><title>instance/init&#45;&gt;instance/render</title>
<path fill="none" stroke="#757575" d="M722.193,-437.533C701.058,-429.574 677.676,-416.59 665.228,-396 653.974,-377.385 657.729,-352.498 663.438,-333.775"/>
<polygon fill="#757575" stroke="#757575" points="666.826,-334.68 666.727,-324.086 660.198,-332.429 666.826,-334.68"/>
</g>
<!-- instance/init&#45;&gt;instance/state -->
<g id="edge31" class="edge"><title>instance/init&#45;&gt;instance/state</title>
<path fill="none" stroke="#757575" d="M815.393,-439.414C879.362,-426.94 991.247,-405.124 1061.62,-391.403"/>
<polygon fill="#757575" stroke="#757575" points="1062.55,-394.788 1071.69,-389.439 1061.21,-387.918 1062.55,-394.788"/>
</g>
<!-- instance/proxy -->
<g id="node19" class="node"><title>instance/proxy</title>
<ellipse fill="none" stroke="#ff6c60" cx="746.228" cy="-378" rx="71.5463" ry="18"/>
<text text-anchor="middle" x="746.228" y="-374.849" font-family="Arial" font-size="14.00" fill="#ff6c60">instance/proxy</text>
</g>
<!-- instance/init&#45;&gt;instance/proxy -->
<g id="edge29" class="edge"><title>instance/init&#45;&gt;instance/proxy</title>
<path fill="none" stroke="#757575" d="M761.386,-432.055C759.16,-424.261 756.463,-414.822 753.965,-406.079"/>
<polygon fill="#757575" stroke="#757575" points="757.276,-404.929 751.164,-396.275 750.546,-406.852 757.276,-404.929"/>
</g>
<!-- instance/lifecycle&#45;&gt;util/index -->
<g id="edge36" class="edge"><title>instance/lifecycle&#45;&gt;util/index</title>
<path fill="none" stroke="#757575" d="M937.485,-395.957C947.38,-405.621 958.871,-418.478 966.228,-432 1005.8,-504.729 953.988,-555.2 1014.23,-612 1042.89,-639.029 1149.6,-653.642 1216.78,-660.336"/>
<polygon fill="#757575" stroke="#757575" points="1216.51,-663.825 1226.8,-661.304 1217.18,-656.858 1216.51,-663.825"/>
</g>
<!-- instance/lifecycle&#45;&gt;observer/index -->
<g id="edge34" class="edge"><title>instance/lifecycle&#45;&gt;observer/index</title>
<path fill="none" stroke="#757575" d="M984.604,-367.34C1074.9,-354.2 1235.77,-330.787 1328.35,-317.315"/>
<polygon fill="#757575" stroke="#757575" points="1329.07,-320.747 1338.46,-315.843 1328.06,-313.82 1329.07,-320.747"/>
</g>
<!-- instance/lifecycle&#45;&gt;instance/render -->
<g id="edge33" class="edge"><title>instance/lifecycle&#45;&gt;instance/render</title>
<path fill="none" stroke="#757575" d="M870.603,-363.337C830.331,-351.784 772.573,-335.214 730.118,-323.034"/>
<polygon fill="#757575" stroke="#757575" points="731.069,-319.666 720.491,-320.272 729.138,-326.394 731.069,-319.666"/>
</g>
<!-- observer/watcher -->
<g id="node20" class="node"><title>observer/watcher</title>
<ellipse fill="none" stroke="#ff6c60" cx="1168.23" cy="-162" rx="83.0782" ry="18"/>
<text text-anchor="middle" x="1168.23" y="-158.849" font-family="Arial" font-size="14.00" fill="#ff6c60">observer/watcher</text>
</g>
<!-- instance/lifecycle&#45;&gt;observer/watcher -->
<g id="edge35" class="edge"><title>instance/lifecycle&#45;&gt;observer/watcher</title>
<path fill="none" stroke="#757575" d="M932.438,-360.062C958.977,-329.067 1018.78,-262.169 1078.23,-216 1093.55,-204.099 1111.79,-192.887 1127.83,-183.868"/>
<polygon fill="#757575" stroke="#757575" points="1129.91,-186.716 1136.98,-178.822 1126.53,-180.586 1129.91,-186.716"/>
</g>
<!-- vdom/vnode -->
<g id="node21" class="node"><title>vdom/vnode</title>
<ellipse fill="none" stroke="#cfffac" cx="768.228" cy="-90" rx="62.2013" ry="18"/>
<text text-anchor="middle" x="768.228" y="-86.8493" font-family="Arial" font-size="14.00" fill="#cfffac">vdom/vnode</text>
</g>
<!-- instance/lifecycle&#45;&gt;vdom/vnode -->
<g id="edge37" class="edge"><title>instance/lifecycle&#45;&gt;vdom/vnode</title>
<path fill="none" stroke="#757575" d="M916.56,-359.793C911.829,-318.717 895.187,-213.209 844.228,-144 834.526,-130.824 820.536,-119.751 807.196,-111.19"/>
<polygon fill="#757575" stroke="#757575" points="808.935,-108.151 798.576,-105.93 805.289,-114.127 808.935,-108.151"/>
</g>
<!-- instance/render&#45;&gt;config -->
<g id="edge39" class="edge"><title>instance/render&#45;&gt;config</title>
<path fill="none" stroke="#757575" d="M710.236,-290.133C735.089,-279.744 768.824,-265.389 798.228,-252 965.386,-175.886 994.856,-126.588 1170.23,-72 1274.01,-39.6955 1401.78,-26.6216 1468.6,-21.7027"/>
<polygon fill="#757575" stroke="#757575" points="1469.06,-25.1791 1478.78,-20.9816 1468.56,-18.1966 1469.06,-25.1791"/>
</g>
<!-- instance/render&#45;&gt;util/index -->
<g id="edge40" class="edge"><title>instance/render&#45;&gt;util/index</title>
<path fill="none" stroke="#757575" d="M601.436,-311.053C525.061,-316.842 411.9,-330.276 381.228,-360 352.183,-388.148 362.228,-408.553 362.228,-449 362.228,-523 362.228,-523 362.228,-523 362.228,-609.78 1015.92,-651.433 1215.84,-662.142"/>
<polygon fill="#757575" stroke="#757575" points="1215.68,-665.638 1225.85,-662.673 1216.05,-658.648 1215.68,-665.638"/>
</g>
<!-- instance/render&#45;&gt;vdom/helpers/index -->
<g id="edge42" class="edge"><title>instance/render&#45;&gt;vdom/helpers/index</title>
<path fill="none" stroke="#757575" d="M603.675,-299.334C537.775,-292.482 446.082,-278.423 422.228,-252 389.285,-215.51 393.422,-153.727 399.348,-118.246"/>
<polygon fill="#757575" stroke="#757575" points="402.841,-118.605 401.205,-108.137 395.956,-117.34 402.841,-118.605"/>
</g>
<!-- instance/render&#45;&gt;vdom/vnode -->
<g id="edge43" class="edge"><title>instance/render&#45;&gt;vdom/vnode</title>
<path fill="none" stroke="#757575" d="M706.622,-289.649C743.665,-270.074 802.386,-232.375 827.228,-180 834.085,-165.544 833.744,-158.613 827.228,-144 821.785,-131.795 811.989,-121.227 801.923,-112.808"/>
<polygon fill="#757575" stroke="#757575" points="803.908,-109.917 793.87,-106.527 799.603,-115.437 803.908,-109.917"/>
</g>
<!-- vdom/create&#45;element -->
<g id="node22" class="node"><title>vdom/create&#45;element</title>
<ellipse fill="none" stroke="#ff6c60" cx="530.228" cy="-234" rx="99.0517" ry="18"/>
<text text-anchor="middle" x="530.228" y="-230.849" font-family="Arial" font-size="14.00" fill="#ff6c60">vdom/create&#45;element</text>
</g>
<!-- instance/render&#45;&gt;vdom/create&#45;element -->
<g id="edge41" class="edge"><title>instance/render&#45;&gt;vdom/create&#45;element</title>
<path fill="none" stroke="#757575" d="M642.627,-289.638C622.053,-279.637 594.973,-266.473 572.549,-255.573"/>
<polygon fill="#757575" stroke="#757575" points="573.78,-252.279 563.256,-251.055 570.719,-258.575 573.78,-252.279"/>
</g>
<!-- instance/state&#45;&gt;util/index -->
<g id="edge47" class="edge"><title>instance/state&#45;&gt;util/index</title>
<path fill="none" stroke="#757575" d="M1125.15,-396.106C1125.8,-437.412 1132.61,-544.189 1183.23,-612 1195.13,-627.938 1213.35,-639.948 1230.3,-648.471"/>
<polygon fill="#757575" stroke="#757575" points="1229,-651.727 1239.53,-652.849 1231.99,-645.402 1229,-651.727"/>
</g>
<!-- instance/state&#45;&gt;observer/index -->
<g id="edge45" class="edge"><title>instance/state&#45;&gt;observer/index</title>
<path fill="none" stroke="#757575" d="M1172.64,-364.887C1219.31,-352.964 1290.68,-334.732 1340.82,-321.922"/>
<polygon fill="#757575" stroke="#757575" points="1341.73,-325.302 1350.55,-319.436 1340,-318.52 1341.73,-325.302"/>
</g>
<!-- instance/state&#45;&gt;observer/watcher -->
<g id="edge46" class="edge"><title>instance/state&#45;&gt;observer/watcher</title>
<path fill="none" stroke="#757575" d="M1114.58,-359.994C1096.93,-329.459 1065.97,-264.045 1091.23,-216 1098.35,-202.461 1110.66,-191.707 1123.38,-183.523"/>
<polygon fill="#757575" stroke="#757575" points="1125.4,-186.395 1132.19,-178.265 1121.81,-180.384 1125.4,-186.395"/>
</g>
<!-- instance/state&#45;&gt;observer/dep -->
<g id="edge44" class="edge"><title>instance/state&#45;&gt;observer/dep</title>
<path fill="none" stroke="#757575" d="M1130.17,-359.871C1137.19,-335.564 1150.11,-290.819 1158.43,-262.013"/>
<polygon fill="#757575" stroke="#757575" points="1161.85,-262.768 1161.26,-252.189 1155.13,-260.826 1161.85,-262.768"/>
</g>
<!-- instance/proxy&#45;&gt;util/index -->
<g id="edge38" class="edge"><title>instance/proxy&#45;&gt;util/index</title>
<path fill="none" stroke="#757575" d="M775.881,-394.608C793.867,-404.523 816.983,-418.075 836.228,-432 875.52,-460.431 886.882,-466.992 918.228,-504 954.736,-547.103 938.568,-580.163 985.228,-612 1022.05,-637.126 1143.58,-652.7 1216.48,-660.017"/>
<polygon fill="#757575" stroke="#757575" points="1216.57,-663.543 1226.87,-661.037 1217.26,-656.576 1216.57,-663.543"/>
</g>
<!-- observer/watcher&#45;&gt;config -->
<g id="edge58" class="edge"><title>observer/watcher&#45;&gt;config</title>
<path fill="none" stroke="#757575" d="M1168.34,-143.747C1169.46,-123.414 1174.6,-90.109 1195.23,-72 1235.1,-36.9971 1389.99,-24.7896 1468.32,-20.7976"/>
<polygon fill="#757575" stroke="#757575" points="1468.58,-24.2896 1478.39,-20.3083 1468.24,-17.2979 1468.58,-24.2896"/>
</g>
<!-- observer/watcher&#45;&gt;util/index -->
<g id="edge61" class="edge"><title>observer/watcher&#45;&gt;util/index</title>
<path fill="none" stroke="#757575" d="M1201.74,-178.639C1216.54,-187.411 1232.54,-199.868 1241.23,-216 1324.78,-371.108 1232.58,-437.845 1259.23,-612 1260.56,-620.695 1262.75,-630.019 1265.01,-638.386"/>
<polygon fill="#757575" stroke="#757575" points="1261.65,-639.348 1267.75,-648.009 1268.38,-637.433 1261.65,-639.348"/>
</g>
<!-- observer/watcher&#45;&gt;observer/dep -->
<g id="edge59" class="edge"><title>observer/watcher&#45;&gt;observer/dep</title>
<path fill="none" stroke="#757575" d="M1173.65,-180.275C1174.23,-188.03 1174.19,-197.362 1173.59,-206.005"/>
<polygon fill="#757575" stroke="#757575" points="1170.1,-205.758 1172.59,-216.055 1177.06,-206.45 1170.1,-205.758"/>
</g>
<!-- observer/scheduler -->
<g id="node25" class="node"><title>observer/scheduler</title>
<ellipse fill="none" stroke="#ff6c60" cx="1295.23" cy="-90" rx="90.8041" ry="18"/>
<text text-anchor="middle" x="1295.23" y="-86.8493" font-family="Arial" font-size="14.00" fill="#ff6c60">observer/scheduler</text>
</g>
<!-- observer/watcher&#45;&gt;observer/scheduler -->
<g id="edge60" class="edge"><title>observer/watcher&#45;&gt;observer/scheduler</title>
<path fill="none" stroke="#757575" d="M1192.18,-144.588C1209.02,-134.706 1231.87,-122.039 1251.83,-111.501"/>
<polygon fill="#757575" stroke="#757575" points="1253.52,-114.565 1260.76,-106.827 1250.28,-108.363 1253.52,-114.565"/>
</g>
<!-- vdom/create&#45;element&#45;&gt;config -->
<g id="edge82" class="edge"><title>vdom/create&#45;element&#45;&gt;config</title>
<path fill="none" stroke="#757575" d="M530.325,-215.726C531.3,-196.29 535.595,-164.733 552.228,-144 597.254,-87.8771 627.747,-90.6944 697.228,-72 844.337,-32.4192 1317.9,-21.9634 1468.08,-19.609"/>
<polygon fill="#757575" stroke="#757575" points="1468.38,-23.105 1478.33,-19.4532 1468.27,-16.1058 1468.38,-23.105"/>
</g>
<!-- vdom/create&#45;element&#45;&gt;util/index -->
<g id="edge83" class="edge"><title>vdom/create&#45;element&#45;&gt;util/index</title>
<path fill="none" stroke="#757575" d="M471.748,-248.576C410.845,-266.593 324.228,-304.894 324.228,-377 324.228,-523 324.228,-523 324.228,-523 324.228,-592.655 387.428,-589.15 453.228,-612 594.08,-660.913 1051.64,-665.284 1214.78,-665.242"/>
<polygon fill="#757575" stroke="#757575" points="1215.1,-668.742 1225.1,-665.233 1215.09,-661.742 1215.1,-668.742"/>
</g>
<!-- vdom/create&#45;element&#45;&gt;vdom/helpers/index -->
<g id="edge85" class="edge"><title>vdom/create&#45;element&#45;&gt;vdom/helpers/index</title>
<path fill="none" stroke="#757575" d="M515.398,-216.153C493.408,-191.173 452.035,-144.172 426.723,-115.418"/>
<polygon fill="#757575" stroke="#757575" points="429.273,-113.018 420.039,-107.825 424.019,-117.644 429.273,-113.018"/>
</g>
<!-- vdom/create&#45;element&#45;&gt;vdom/vnode -->
<g id="edge86" class="edge"><title>vdom/create&#45;element&#45;&gt;vdom/vnode</title>
<path fill="none" stroke="#757575" d="M536.353,-215.94C544.453,-195.796 560.638,-162.677 585.228,-144 618.453,-118.764 663.366,-105.529 700.383,-98.5963"/>
<polygon fill="#757575" stroke="#757575" points="701.353,-101.98 710.597,-96.8032 700.143,-95.085 701.353,-101.98"/>
</g>
<!-- vdom/create&#45;component -->
<g id="node31" class="node"><title>vdom/create&#45;component</title>
<ellipse fill="none" stroke="#ff6c60" cx="706.228" cy="-162" rx="112.249" ry="18"/>
<text text-anchor="middle" x="706.228" y="-158.849" font-family="Arial" font-size="14.00" fill="#ff6c60">vdom/create&#45;component</text>
</g>
<!-- vdom/create&#45;element&#45;&gt;vdom/create&#45;component -->
<g id="edge84" class="edge"><title>vdom/create&#45;element&#45;&gt;vdom/create&#45;component</title>
<path fill="none" stroke="#757575" d="M564.825,-216.941C589.635,-206.605 623.444,-193.116 651.822,-182.213"/>
<polygon fill="#757575" stroke="#757575" points="653.124,-185.462 661.216,-178.623 650.626,-178.924 653.124,-185.462"/>
</g>
<!-- observer/dep&#45;&gt;util/index -->
<g id="edge50" class="edge"><title>observer/dep&#45;&gt;util/index</title>
<path fill="none" stroke="#757575" d="M1172.58,-252.104C1181.13,-275.918 1196.07,-320.585 1203.23,-360 1223.28,-470.48 1175.07,-509.639 1221.23,-612 1226.53,-623.751 1235.62,-634.409 1244.74,-643.034"/>
<polygon fill="#757575" stroke="#757575" points="1242.52,-645.746 1252.31,-649.781 1247.17,-640.518 1242.52,-645.746"/>
</g>
<!-- observer/dep&#45;&gt;observer/watcher -->
<g id="edge49" class="edge"><title>observer/dep&#45;&gt;observer/watcher</title>
<path fill="none" stroke="#757575" d="M1160.83,-216.055C1160.24,-208.346 1160.26,-199.027 1160.84,-190.364"/>
<polygon fill="#757575" stroke="#757575" points="1164.34,-190.567 1161.82,-180.275 1157.37,-189.89 1164.34,-190.567"/>
</g>
<!-- observer/array&#45;&gt;util/index -->
<g id="edge48" class="edge"><title>observer/array&#45;&gt;util/index</title>
<path fill="none" stroke="#757575" d="M1677.38,-251.885C1659.22,-277.486 1628.23,-328.311 1628.23,-377 1628.23,-451 1628.23,-451 1628.23,-451 1628.23,-524.134 1647.08,-561.45 1594.23,-612 1557.43,-647.194 1413.26,-659.104 1331.2,-663.07"/>
<polygon fill="#757575" stroke="#757575" points="1330.85,-659.582 1321.02,-663.536 1331.17,-666.574 1330.85,-659.582"/>
</g>
<!-- observer/scheduler&#45;&gt;config -->
<g id="edge55" class="edge"><title>observer/scheduler&#45;&gt;config</title>
<path fill="none" stroke="#757575" d="M1340.87,-74.4109C1380.57,-61.7213 1437.49,-43.5294 1475.13,-31.4973"/>
<polygon fill="#757575" stroke="#757575" points="1476.27,-34.8061 1484.73,-28.4276 1474.14,-28.1384 1476.27,-34.8061"/>
</g>
<!-- observer/scheduler&#45;&gt;util/index -->
<g id="edge57" class="edge"><title>observer/scheduler&#45;&gt;util/index</title>
<path fill="none" stroke="#757575" d="M1295.82,-108.047C1296.69,-134.703 1298.23,-187.875 1298.23,-233 1298.23,-307 1298.23,-307 1298.23,-307 1298.23,-430.759 1283.18,-578 1276.43,-637.772"/>
<polygon fill="#757575" stroke="#757575" points="1272.93,-637.556 1275.27,-647.889 1279.89,-638.352 1272.93,-637.556"/>
</g>
<!-- observer/scheduler&#45;&gt;observer/watcher -->
<g id="edge56" class="edge"><title>observer/scheduler&#45;&gt;observer/watcher</title>
<path fill="none" stroke="#757575" d="M1271.18,-107.467C1254.2,-117.429 1231.14,-130.207 1211.1,-140.78"/>
<polygon fill="#757575" stroke="#757575" points="1209.37,-137.731 1202.13,-145.465 1212.62,-143.934 1209.37,-137.731"/>
</g>
<!-- util/debug&#45;&gt;config -->
<g id="edge62" class="edge"><title>util/debug&#45;&gt;config</title>
<path fill="none" stroke="#757575" d="M1511.02,-503.955C1512.18,-477.302 1514.23,-424.132 1514.23,-379 1514.23,-379 1514.23,-379 1514.23,-161 1514.23,-120.996 1514.23,-74.6528 1514.23,-46.0798"/>
<polygon fill="#757575" stroke="#757575" points="1517.73,-46.0492 1514.23,-36.0493 1510.73,-46.0493 1517.73,-46.0492"/>
</g>
<!-- util/options&#45;&gt;config -->
<g id="edge69" class="edge"><title>util/options&#45;&gt;config</title>
<path fill="none" stroke="#757575" d="M1545.43,-576.696C1554.32,-566.845 1564.82,-553.595 1571.23,-540 1588.46,-503.409 1590.23,-491.447 1590.23,-451 1590.23,-451 1590.23,-451 1590.23,-161 1590.23,-114.627 1558.33,-68.7431 1535.87,-42.1761"/>
<polygon fill="#757575" stroke="#757575" points="1538.45,-39.8137 1529.24,-34.5722 1533.17,-44.4115 1538.45,-39.8137"/>
</g>
<!-- util/options&#45;&gt;observer/index -->
<g id="edge71" class="edge"><title>util/options&#45;&gt;observer/index</title>
<path fill="none" stroke="#757575" d="M1496.87,-579.197C1480.09,-570.392 1460.75,-557.349 1449.23,-540 1404.19,-472.177 1434.58,-439.082 1415.23,-360 1413.12,-351.371 1410.44,-342.065 1407.89,-333.695"/>
<polygon fill="#757575" stroke="#757575" points="1411.2,-332.561 1404.88,-324.058 1404.52,-334.647 1411.2,-332.561"/>
</g>
<!-- util/options&#45;&gt;instance/index -->
<g id="edge70" class="edge"><title>util/options&#45;&gt;instance/index</title>
<path fill="none" stroke="#757575" d="M1489.24,-581.375C1481.03,-579.317 1472.39,-577.39 1464.23,-576 1261.52,-541.487 1019.24,-529.262 895.949,-525.076"/>
<polygon fill="#757575" stroke="#757575" points="895.947,-521.574 885.837,-524.742 895.716,-528.571 895.947,-521.574"/>
</g>
<!-- util/options&#45;&gt;util/debug -->
<g id="edge72" class="edge"><title>util/options&#45;&gt;util/debug</title>
<path fill="none" stroke="#757575" d="M1524.63,-576.055C1522.51,-568.261 1519.95,-558.822 1517.58,-550.079"/>
<polygon fill="#757575" stroke="#757575" points="1520.91,-549.009 1514.92,-540.275 1514.16,-550.843 1520.91,-549.009"/>
</g>
<!-- util/props&#45;&gt;observer/index -->
<g id="edge73" class="edge"><title>util/props&#45;&gt;observer/index</title>
<path fill="none" stroke="#757575" d="M1405.81,-575.966C1404.64,-528.291 1401.34,-393.185 1399.9,-334.63"/>
<polygon fill="#757575" stroke="#757575" points="1403.4,-334.218 1399.65,-324.306 1396.4,-334.389 1403.4,-334.218"/>
</g>
<!-- util/props&#45;&gt;util/debug -->
<g id="edge74" class="edge"><title>util/props&#45;&gt;util/debug</title>
<path fill="none" stroke="#757575" d="M1428.79,-577.811C1443.41,-567.972 1462.66,-555.019 1478.77,-544.175"/>
<polygon fill="#757575" stroke="#757575" points="1481,-546.888 1487.35,-538.401 1477.1,-541.081 1481,-546.888"/>
</g>
<!-- vdom/create&#45;component&#45;&gt;util/index -->
<g id="edge78" class="edge"><title>vdom/create&#45;component&#45;&gt;util/index</title>
<path fill="none" stroke="#757575" d="M774.516,-176.438C869.036,-199.464 1028.23,-256.179 1028.23,-377 1028.23,-523 1028.23,-523 1028.23,-523 1028.23,-610.335 1146.2,-644.839 1218.42,-657.78"/>
<polygon fill="#757575" stroke="#757575" points="1217.84,-661.232 1228.29,-659.466 1219.02,-654.332 1217.84,-661.232"/>
</g>
<!-- vdom/create&#45;component&#45;&gt;vdom/helpers/index -->
<g id="edge80" class="edge"><title>vdom/create&#45;component&#45;&gt;vdom/helpers/index</title>
<path fill="none" stroke="#757575" d="M645.316,-146.834C595.045,-135.144 523.808,-118.577 471.993,-106.527"/>
<polygon fill="#757575" stroke="#757575" points="472.761,-103.112 462.228,-104.256 471.175,-109.93 472.761,-103.112"/>
</g>
<!-- vdom/create&#45;component&#45;&gt;instance/init -->
<g id="edge75" class="edge"><title>vdom/create&#45;component&#45;&gt;instance/init</title>
<path fill="none" stroke="#757575" d="M695.24,-180.224C682.757,-199.051 661.127,-229.527 638.228,-252 618.941,-270.928 601.432,-263.889 589.228,-288 582.002,-302.275 583.484,-309.066 589.228,-324 610.554,-379.447 672.919,-414.052 717.578,-432.43"/>
<polygon fill="#757575" stroke="#757575" points="716.514,-435.773 727.1,-436.215 719.1,-429.268 716.514,-435.773"/>
</g>
<!-- vdom/create&#45;component&#45;&gt;instance/lifecycle -->
<g id="edge76" class="edge"><title>vdom/create&#45;component&#45;&gt;instance/lifecycle</title>
<path fill="none" stroke="#757575" d="M723.079,-180.01C760.577,-217.862 851.01,-309.148 894.322,-352.869"/>
<polygon fill="#757575" stroke="#757575" points="892.068,-355.567 901.593,-360.208 897.041,-350.64 892.068,-355.567"/>
</g>
<!-- vdom/create&#45;component&#45;&gt;instance/render -->
<g id="edge77" class="edge"><title>vdom/create&#45;component&#45;&gt;instance/render</title>
<path fill="none" stroke="#757575" d="M702.354,-180.189C696.869,-204.531 686.785,-249.28 680.299,-278.059"/>
<polygon fill="#757575" stroke="#757575" points="676.872,-277.347 678.088,-287.871 683.701,-278.886 676.872,-277.347"/>
</g>
<!-- vdom/create&#45;component&#45;&gt;vdom/vnode -->
<g id="edge81" class="edge"><title>vdom/create&#45;component&#45;&gt;vdom/vnode</title>
<path fill="none" stroke="#757575" d="M721.236,-144.055C728.852,-135.457 738.241,-124.857 746.619,-115.397"/>
<polygon fill="#757575" stroke="#757575" points="749.347,-117.596 753.358,-107.789 744.107,-112.954 749.347,-117.596"/>
</g>
<!-- vdom/create&#45;component&#45;&gt;vdom/create&#45;element -->
<g id="edge79" class="edge"><title>vdom/create&#45;component&#45;&gt;vdom/create&#45;element</title>
<path fill="none" stroke="#757575" d="M671.453,-179.134C646.336,-189.594 612.064,-203.261 583.531,-214.21"/>
<polygon fill="#757575" stroke="#757575" points="582.191,-210.976 574.096,-217.811 584.686,-217.515 582.191,-210.976"/>
</g>
</g>
</svg>
